<svg width="104" height="105" viewBox="0 0 104 105" fill="none" xmlns="http://www.w3.org/2000/svg">
<path d="M5.58594 33.2637L1.82812 38.3701H20.2109L21.6125 11.5664L5.58594 33.2637ZM80.4984 9.37207L54.3766 6.5625L81.9406 36.75L80.4984 9.37207ZM22.7906 44.7686L20.5156 40.2568H2.01094L47.6938 93.9258L22.7906 44.7686ZM23.1969 38.3701H80.8844L64.3297 20.2207L52.0609 6.76758L23.1969 38.3701ZM83.5859 40.2363L56.3875 93.9258L102.05 40.2568H83.5859V40.2363ZM84.3781 14.1504L82.4688 11.5664L82.6516 15.1143L83.8906 38.3701H102.233L84.3781 14.1504ZM23.0547 19.1748L22.1203 36.7295L49.7047 6.5625L23.5828 9.37207L23.0547 19.1748ZM81.4938 40.2363H22.5875L31.2 57.2373L52.0609 98.4375L81.4938 40.2363Z" fill="black"/>
</svg>
