<svg width="96" height="86" viewBox="0 0 96 86" fill="none" xmlns="http://www.w3.org/2000/svg">
<path d="M34.2857 9.3125C34.2857 4.24023 38.8929 0.125 44.5714 0.125H51.4286C57.1071 0.125 61.7143 4.24023 61.7143 9.3125V76.6875C61.7143 81.7598 57.1071 85.875 51.4286 85.875H44.5714C38.8929 85.875 34.2857 81.7598 34.2857 76.6875V9.3125ZM0 46.0625C0 40.9902 4.60714 36.875 10.2857 36.875H17.1429C22.8214 36.875 27.4286 40.9902 27.4286 46.0625V76.6875C27.4286 81.7598 22.8214 85.875 17.1429 85.875H10.2857C4.60714 85.875 0 81.7598 0 76.6875V46.0625ZM78.8571 12.375H85.7143C91.3929 12.375 96 16.4902 96 21.5625V76.6875C96 81.7598 91.3929 85.875 85.7143 85.875H78.8571C73.1786 85.875 68.5714 81.7598 68.5714 76.6875V21.5625C68.5714 16.4902 73.1786 12.375 78.8571 12.375Z" fill="black"/>
</svg>
