<svg width="21" height="21" viewBox="0 0 21 21" fill="none" xmlns="http://www.w3.org/2000/svg">
<path d="M13.125 0C12.399 0 11.8125 0.586523 11.8125 1.3125C11.8125 2.03848 12.399 2.625 13.125 2.625H16.517L8.26055 10.8855C7.74785 11.3982 7.74785 12.2309 8.26055 12.7436C8.77324 13.2563 9.60586 13.2563 10.1186 12.7436L18.375 4.48301V7.875C18.375 8.60098 18.9615 9.1875 19.6875 9.1875C20.4135 9.1875 21 8.60098 21 7.875V1.3125C21 0.586523 20.4135 0 19.6875 0H13.125ZM3.28125 1.3125C1.46836 1.3125 0 2.78086 0 4.59375V17.7188C0 19.5316 1.46836 21 3.28125 21H16.4062C18.2191 21 19.6875 19.5316 19.6875 17.7188V13.125C19.6875 12.399 19.101 11.8125 18.375 11.8125C17.649 11.8125 17.0625 12.399 17.0625 13.125V17.7188C17.0625 18.0797 16.7672 18.375 16.4062 18.375H3.28125C2.92031 18.375 2.625 18.0797 2.625 17.7188V4.59375C2.625 4.23281 2.92031 3.9375 3.28125 3.9375H7.875C8.60098 3.9375 9.1875 3.35098 9.1875 2.625C9.1875 1.89902 8.60098 1.3125 7.875 1.3125H3.28125Z" fill="white"/>
</svg>
