<svg width="101" height="95" viewBox="0 0 101 95" fill="none" xmlns="http://www.w3.org/2000/svg">
<g clip-path="url(#clip0_5_23)">
<path d="M15.5049 0.927645C13.6308 -0.445401 10.9677 -0.278409 9.27126 1.29874L1.38064 8.72061C-0.296118 10.2978 -0.473657 12.8026 0.966382 14.5839L16.7476 33.8808C17.6353 34.9755 19.0359 35.6249 20.4957 35.6249H31.1677L52.6697 55.8495C49.7699 61.2304 50.697 67.9843 55.4906 72.4745L77.5844 93.2558C80.0502 95.5751 84.0547 95.5751 86.5205 93.2558L99.1455 81.3808C101.611 79.0614 101.611 75.2948 99.1455 72.9755L77.0517 52.1942C72.2779 47.704 65.0974 46.8134 59.3767 49.5409L37.8748 29.3163V19.2968C37.8748 17.9052 37.1844 16.6064 36.0205 15.7714L15.5049 0.927645ZM3.92537 73.495C1.42009 75.8515 -0.000219686 79.0614 -0.000219686 82.4013C-0.000219686 89.3593 5.99666 94.9999 13.3941 94.9999C16.9449 94.9999 20.3576 93.664 22.8629 91.3075L46.1008 69.4501C44.5621 65.5722 44.3254 61.3603 45.3906 57.371L33.2193 45.9228L3.92537 73.495ZM101 26.7187C101 24.7704 100.783 22.8778 100.369 21.0595C99.8951 18.9814 97.1926 18.4433 95.5947 19.9462L82.9894 31.8026C82.3976 32.3593 81.5888 32.6747 80.7603 32.6747H69.4373C67.7013 32.6747 66.281 31.3388 66.281 29.706V19.037C66.281 18.2577 66.6164 17.497 67.2082 16.9403L79.8135 5.0839C81.4113 3.58097 80.8392 1.03897 78.6299 0.593661C76.6769 0.204013 74.6648 -8.88513e-05 72.5935 -8.88513e-05C56.9109 -8.88513e-05 44.1873 11.9677 44.1873 26.7187V26.8671L61.014 42.6942C68.1156 41.0058 75.9668 42.787 81.5297 48.0194L84.6267 50.9325C94.2928 46.6649 101 37.4247 101 26.7187ZM11.0467 80.1562C11.0467 78.9751 11.5455 77.8424 12.4333 77.0073C13.3212 76.1722 14.5254 75.703 15.781 75.703C17.0367 75.703 18.2409 76.1722 19.1287 77.0073C20.0166 77.8424 20.5154 78.9751 20.5154 80.1562C20.5154 81.3372 20.0166 82.4699 19.1287 83.305C18.2409 84.1401 17.0367 84.6093 15.781 84.6093C14.5254 84.6093 13.3212 84.1401 12.4333 83.305C11.5455 82.4699 11.0467 81.3372 11.0467 80.1562Z" fill="black"/>
</g>
<defs>
<clipPath id="clip0_5_23">
<rect width="101" height="95" fill="white"/>
</clipPath>
</defs>
</svg>
